<svg width="30" height="30" viewBox="0 0 30 30" fill="none" xmlns="http://www.w3.org/2000/svg">
<path d="M14.9999 1.20001C12.3562 1.20001 10.1999 3.35626 10.1999 6.00001C10.1999 8.64376 12.3562 10.8 14.9999 10.8C17.6437 10.8 19.7999 8.64376 19.7999 6.00001C19.7999 3.35626 17.6437 1.20001 14.9999 1.20001ZM14.9999 2.40001C16.9944 2.40001 18.5999 4.00548 18.5999 6.00001C18.5999 7.99454 16.9944 9.60001 14.9999 9.60001C13.0054 9.60001 11.3999 7.99454 11.3999 6.00001C11.3999 4.00548 13.0054 2.40001 14.9999 2.40001ZM11.9905 11.9906C11.9601 11.993 11.9319 11.9953 11.9015 12H10.7999C9.68428 12 8.75381 12.3891 8.07178 12.8203C7.38975 13.2516 6.96318 13.7016 6.75928 13.9711C5.62959 15.4711 3.12178 19.5844 3.12178 19.5844C3.11943 19.5867 3.11709 19.5891 3.11475 19.5938C2.65772 20.3766 2.38818 21.1383 2.4374 21.9164C2.48662 22.6922 2.87334 23.4188 3.52959 24.0727L6.2999 26.8453C7.08975 27.6352 8.32256 27.6656 9.19209 27.0117L9.30225 28.2539C9.31865 28.4695 9.44756 28.6594 9.64443 28.7531C9.84131 28.8445 10.071 28.8258 10.2491 28.6992C10.4249 28.5727 10.521 28.3617 10.4976 28.1461L9.59522 17.9461C9.57178 17.6977 9.39834 17.4891 9.15928 17.4234C8.91787 17.3555 8.66006 17.4445 8.5124 17.6461L5.93897 21.1734C5.76553 21.4125 5.79131 21.743 5.9999 21.9516L8.59678 24.5484C9.00225 24.9539 9.00225 25.5914 8.59678 25.9969C8.19131 26.4024 7.55381 26.4024 7.15068 25.9969L4.37803 23.2242C3.86006 22.7063 3.66318 22.282 3.63506 21.8367C3.60693 21.3938 3.76162 20.8664 4.15303 20.1984C4.1624 20.182 6.71709 16.0195 7.71787 14.693C7.71787 14.693 7.71787 14.693 7.71787 14.6906C7.79287 14.5922 8.17022 14.1774 8.71162 13.8352C9.25537 13.493 9.96553 13.2 10.7999 13.2H11.5991L14.1304 19.275L13.221 21.7008C13.1483 21.8977 13.2562 22.1133 13.4624 22.1813L15.2038 22.7789C15.4101 22.8469 15.6351 22.7461 15.7101 22.5492L16.7765 19.6992C16.8491 19.5024 16.7437 19.2867 16.5374 19.2188L15.9749 19.0242L18.4007 13.2H19.1999C20.0343 13.2 20.7444 13.493 21.2882 13.8352C21.8296 14.1774 22.2069 14.5922 22.2819 14.6906C22.2819 14.693 22.2819 14.693 22.2819 14.693C23.2827 16.0195 25.8374 20.182 25.8468 20.1984C26.2382 20.8664 26.3929 21.3938 26.3647 21.8367C26.3366 22.282 26.1397 22.7063 25.6218 23.2242L22.8491 25.9969C22.446 26.4024 21.8085 26.4024 21.403 25.9969C20.9976 25.5914 20.9976 24.9539 21.403 24.5484L23.9999 21.9516C24.2085 21.743 24.2343 21.4125 24.0585 21.1734L21.4874 17.6461C21.3397 17.4445 21.0819 17.3555 20.8405 17.4234C20.6015 17.4891 20.428 17.6977 20.4046 17.9461L19.5022 28.1461C19.4788 28.3617 19.5749 28.5727 19.7507 28.6992C19.9288 28.8258 20.1585 28.8445 20.3554 28.7531C20.5522 28.6594 20.6812 28.4695 20.6976 28.2539L20.8077 27.0117C21.6772 27.6656 22.9101 27.6352 23.6999 26.8453L26.4726 24.0727C27.1265 23.4188 27.5132 22.6922 27.5624 21.9164C27.6116 21.1383 27.3421 20.3766 26.8851 19.5938C26.8827 19.5891 26.8804 19.5867 26.878 19.5844C26.878 19.5844 24.3702 15.4711 23.2405 13.9711C23.0366 13.7016 22.6101 13.2516 21.928 12.8203C21.246 12.3891 20.3155 12 19.1999 12H12.0937C12.0585 11.9953 12.0257 11.9906 11.9905 11.9906ZM12.8999 13.2H17.0999L14.9999 18.2391L12.8999 13.2ZM8.54053 19.6453L8.84756 23.1L7.21162 21.4664L8.54053 19.6453ZM21.4593 19.6453L22.7882 21.4664L21.1522 23.1L21.4593 19.6453Z" fill="black"/>
</svg>
