<svg width="16" height="19" viewBox="0 0 16 19" fill="none" xmlns="http://www.w3.org/2000/svg">
<path d="M6.40013 -3.8147e-06C5.74195 -3.8147e-06 5.20013 0.541814 5.20013 1.2V2H2.06185C2.03939 1.99624 2.01665 1.99441 1.99388 1.99453C1.9745 1.99495 1.95518 1.99678 1.93607 2H1.20013C1.14713 1.99925 1.0945 2.00904 1.04531 2.0288C0.996126 2.04857 0.951358 2.07791 0.91361 2.11513C0.875862 2.15235 0.845887 2.1967 0.825428 2.2456C0.804969 2.2945 0.794434 2.34699 0.794434 2.4C0.794434 2.45301 0.804969 2.50549 0.825428 2.55439C0.845887 2.60329 0.875862 2.64764 0.91361 2.68486C0.951358 2.72208 0.996126 2.75142 1.04531 2.77119C1.0945 2.79095 1.14713 2.80075 1.20013 2.8H1.60013V17.2C1.60013 17.8582 2.14195 18.4 2.80013 18.4H13.2001C13.8583 18.4 14.4001 17.8582 14.4001 17.2V2.8H14.8001C14.8531 2.80075 14.9058 2.79095 14.9549 2.77119C15.0041 2.75142 15.0489 2.72208 15.0866 2.68486C15.1244 2.64764 15.1544 2.60329 15.1748 2.55439C15.1953 2.50549 15.2058 2.45301 15.2058 2.4C15.2058 2.34699 15.1953 2.2945 15.1748 2.2456C15.1544 2.1967 15.1244 2.15235 15.0866 2.11513C15.0489 2.07791 15.0041 2.04857 14.9549 2.0288C14.9058 2.00904 14.8531 1.99925 14.8001 2H14.0673C14.0241 1.99286 13.98 1.99286 13.9368 2H10.8001V1.2C10.8001 0.541814 10.2583 -3.8147e-06 9.60013 -3.8147e-06H6.40013ZM6.40013 0.799996H9.60013C9.82195 0.799996 10.0001 0.978178 10.0001 1.2V2H6.00013V1.2C6.00013 0.978178 6.17831 0.799996 6.40013 0.799996ZM2.40013 2.8H5.53294C5.57614 2.80714 5.62021 2.80714 5.66341 2.8H10.3329C10.3761 2.80714 10.4202 2.80714 10.4634 2.8H13.6001V17.2C13.6001 17.4218 13.4219 17.6 13.2001 17.6H2.80013C2.57831 17.6 2.40013 17.4218 2.40013 17.2V2.8ZM5.59388 4.79453C5.48793 4.79618 5.38697 4.83981 5.31314 4.91583C5.23932 4.99184 5.19868 5.09404 5.20013 5.2V15.2C5.19938 15.253 5.20917 15.3056 5.22894 15.3548C5.2487 15.404 5.27805 15.4488 5.31527 15.4865C5.35248 15.5243 5.39683 15.5542 5.44574 15.5747C5.49464 15.5952 5.54712 15.6057 5.60013 15.6057C5.65314 15.6057 5.70562 15.5952 5.75452 15.5747C5.80343 15.5542 5.84778 15.5243 5.88499 15.4865C5.92221 15.4488 5.95156 15.404 5.97132 15.3548C5.99109 15.3056 6.00088 15.253 6.00013 15.2V5.2C6.00086 5.14648 5.99085 5.09336 5.97068 5.04379C5.95052 4.99421 5.92061 4.94918 5.88273 4.91138C5.84484 4.87357 5.79976 4.84374 5.75015 4.82367C5.70053 4.8036 5.64739 4.79369 5.59388 4.79453ZM7.99388 4.79453C7.88793 4.79618 7.78696 4.83981 7.71314 4.91583C7.63932 4.99184 7.59868 5.09404 7.60013 5.2V15.2C7.59938 15.253 7.60917 15.3056 7.62894 15.3548C7.6487 15.404 7.67805 15.4488 7.71527 15.4865C7.75248 15.5243 7.79683 15.5542 7.84574 15.5747C7.89464 15.5952 7.94712 15.6057 8.00013 15.6057C8.05314 15.6057 8.10562 15.5952 8.15452 15.5747C8.20343 15.5542 8.24778 15.5243 8.28499 15.4865C8.32221 15.4488 8.35156 15.404 8.37132 15.3548C8.39109 15.3056 8.40088 15.253 8.40013 15.2V5.2C8.40086 5.14648 8.39085 5.09336 8.37068 5.04379C8.35052 4.99421 8.32061 4.94918 8.28273 4.91138C8.24484 4.87357 8.19976 4.84374 8.15015 4.82367C8.10053 4.8036 8.04739 4.79369 7.99388 4.79453ZM10.3939 4.79453C10.2879 4.79618 10.187 4.83981 10.1131 4.91583C10.0393 4.99184 9.99868 5.09404 10.0001 5.2V15.2C9.99938 15.253 10.0092 15.3056 10.0289 15.3548C10.0487 15.404 10.078 15.4488 10.1153 15.4865C10.1525 15.5243 10.1968 15.5542 10.2457 15.5747C10.2946 15.5952 10.3471 15.6057 10.4001 15.6057C10.4531 15.6057 10.5056 15.5952 10.5545 15.5747C10.6034 15.5542 10.6478 15.5243 10.685 15.4865C10.7222 15.4488 10.7516 15.404 10.7713 15.3548C10.7911 15.3056 10.8009 15.253 10.8001 15.2V5.2C10.8009 5.14648 10.7908 5.09336 10.7707 5.04379C10.7505 4.99421 10.7206 4.94918 10.6827 4.91138C10.6448 4.87357 10.5998 4.84374 10.5501 4.82367C10.5005 4.8036 10.4474 4.79369 10.3939 4.79453Z" fill="#FF0B37"/>
</svg>
