<svg width="20" height="20" viewBox="0 0 20 20" fill="none" xmlns="http://www.w3.org/2000/svg">
<path d="M9.9998 0.999996C4.92362 0.999996 0.799805 5.12381 0.799805 10.2C0.799805 11.8316 1.24728 13.3543 1.99355 14.6836L0.814648 18.8922C0.795814 18.9595 0.794963 19.0306 0.81218 19.0984C0.829397 19.1662 0.864081 19.2283 0.912773 19.2785C0.961464 19.3287 1.02246 19.3652 1.08969 19.3845C1.15691 19.4037 1.22801 19.4051 1.2959 19.3883L5.68418 18.3008C6.97366 18.9892 8.43684 19.4 9.9998 19.4C15.076 19.4 19.1998 15.2762 19.1998 10.2C19.1998 5.12381 15.076 0.999996 9.9998 0.999996ZM9.9998 1.8C14.6436 1.8 18.3998 5.55618 18.3998 10.2C18.3998 14.8438 14.6436 18.6 9.9998 18.6C8.51101 18.6 7.11665 18.2119 5.90449 17.5336C5.81584 17.4841 5.71166 17.4701 5.61309 17.4945L1.77012 18.4469L2.80059 14.7703C2.81533 14.7184 2.8194 14.6639 2.81255 14.6104C2.80571 14.5568 2.78808 14.5052 2.76074 14.4586C2.02408 13.2094 1.5998 11.756 1.5998 10.2C1.5998 5.55618 5.35599 1.8 9.9998 1.8ZM6.65684 5.4C6.40042 5.4 6.03422 5.49539 5.7334 5.81953C5.55271 6.01422 4.7998 6.7478 4.7998 8.0375C4.7998 9.3821 5.73236 10.5423 5.84512 10.6914H5.8459V10.6922C5.8352 10.6781 5.98902 10.9009 6.19434 11.168C6.39966 11.4351 6.68677 11.7859 7.04746 12.1656C7.76885 12.9252 8.78312 13.803 10.042 14.3398C10.6217 14.5867 11.0791 14.7358 11.4256 14.8445C12.0677 15.0462 12.6526 15.0155 13.092 14.9508C13.4209 14.9023 13.7826 14.7444 14.1404 14.518C14.4983 14.2915 14.849 14.0099 15.0037 13.582C15.1145 13.2753 15.1708 12.9918 15.1912 12.7586C15.2014 12.642 15.2027 12.539 15.1951 12.4437C15.1875 12.3485 15.1956 12.2755 15.1068 12.1297C14.9206 11.8239 14.7097 11.8159 14.4896 11.707C14.3674 11.6465 14.0193 11.4765 13.6701 11.3102C13.3214 11.144 13.0194 10.9968 12.8334 10.9305C12.7159 10.8882 12.5724 10.8273 12.3654 10.8508C12.1584 10.8742 11.954 11.0236 11.835 11.2C11.7221 11.3672 11.268 11.9033 11.1295 12.0609C11.1277 12.0598 11.1397 12.0653 11.085 12.0383C10.9137 11.9535 10.7043 11.8815 10.3943 11.718C10.0844 11.5545 9.69671 11.3131 9.27246 10.9391V10.9383C8.64102 10.3824 8.19871 9.68444 8.05918 9.45C8.06858 9.43881 8.05806 9.45236 8.07793 9.43281L8.07871 9.43203C8.22132 9.29157 8.3477 9.12381 8.45449 9.00078C8.60591 8.82634 8.67273 8.67257 8.74512 8.5289C8.88939 8.24257 8.80906 7.92749 8.72559 7.76171V7.76093C8.73135 7.7724 8.68043 7.66006 8.62559 7.53047C8.57058 7.4005 8.50047 7.23201 8.42559 7.05234C8.27582 6.693 8.10862 6.28996 8.00918 6.0539V6.05312C7.89204 5.77507 7.73356 5.57476 7.52637 5.47812C7.31917 5.38148 7.13612 5.40896 7.12871 5.40859H7.12793C6.98007 5.40177 6.81782 5.4 6.65684 5.4ZM6.65684 6.2C6.81105 6.2 6.96309 6.20188 7.09043 6.20781C7.22143 6.21434 7.21328 6.21487 7.18809 6.20312C7.16249 6.19118 7.19722 6.18731 7.27168 6.36406C7.36904 6.5952 7.53707 6.9997 7.6873 7.36015C7.76242 7.54038 7.83272 7.70952 7.88887 7.84218C7.94501 7.97484 7.97544 8.04891 8.01074 8.11953V8.12031L8.01152 8.12109C8.04614 8.18939 8.04308 8.14566 8.03105 8.16953C7.94664 8.33706 7.93519 8.37819 7.8498 8.47656C7.7198 8.62633 7.58719 8.79336 7.51699 8.8625C7.45558 8.92282 7.34477 9.01681 7.27559 9.20078C7.20629 9.38503 7.23863 9.63782 7.3498 9.82656C7.49782 10.0778 7.98557 10.8717 8.74355 11.5391C9.22091 11.9599 9.66563 12.2384 10.0209 12.4258C10.3762 12.6132 10.6655 12.7226 10.7303 12.7547C10.884 12.8308 11.0521 12.8899 11.2475 12.8664C11.4429 12.8429 11.6113 12.7244 11.7186 12.6031L11.7193 12.6023C11.8621 12.4405 12.2861 11.9563 12.4896 11.6578C12.4983 11.6608 12.4954 11.6585 12.5631 11.6828V11.6836H12.5639C12.5947 11.6946 12.9815 11.8677 13.3264 12.032C13.6712 12.1964 14.0212 12.3671 14.135 12.4234C14.2991 12.5047 14.3766 12.5575 14.3967 12.5578C14.398 12.593 14.3994 12.6311 14.3943 12.6891C14.3803 12.8497 14.3374 13.0721 14.2514 13.3102C14.2092 13.4267 13.9898 13.6671 13.7131 13.8422C13.4364 14.0173 13.0995 14.141 12.9748 14.1594C12.5998 14.2146 12.1545 14.2348 11.6654 14.0812C11.3263 13.9748 10.9035 13.837 10.3561 13.6039C9.24573 13.1304 8.30204 12.3246 7.62793 11.6148C7.29087 11.26 7.02083 10.9296 6.82871 10.6797C6.63695 10.4302 6.55322 10.3004 6.4834 10.2086L6.48262 10.2078C6.35869 10.0439 5.5998 8.98834 5.5998 8.0375C5.5998 7.03119 6.0672 6.63657 6.32012 6.36406C6.45289 6.22099 6.59805 6.2 6.65684 6.2Z" fill="#0BC71E"/>
</svg>
